<svg version="1.1" id="Layer_1" xmlns="http://www.w3.org/2000/svg" xmlns:xlink="http://www.w3.org/1999/xlink" x="0px" y="0px"
	 width="100%" viewBox="0 0 496 496" enable-background="new 0 0 496 496" xml:space="preserve">
<path fill="#000000" opacity="1.000000" stroke="none" 
	d="
M88.664276,237.097015 
	C84.235916,221.693176 83.161903,206.255920 83.061699,190.783051 
	C82.850174,158.118759 83.009315,125.452019 83.029984,92.786278 
	C83.034081,86.305214 83.270828,86.043526 89.795517,86.032196 
	C111.461533,85.994560 133.128769,86.113678 154.792801,85.898361 
	C159.646774,85.850121 161.060852,87.518311 161.054016,92.266174 
	C161.000320,129.596115 160.531403,166.942520 161.468979,204.251724 
	C162.288696,236.870834 190.048752,266.373718 230.571625,261.195801 
	C259.343658,257.519379 281.421387,230.960876 281.628540,200.679214 
	C281.874847,164.681854 281.714569,128.681732 281.730865,92.682808 
	C281.733826,86.152763 281.784515,86.039352 288.485657,86.026886 
	C310.151672,85.986595 331.818634,86.098457 353.483124,85.907951 
	C358.075897,85.867577 359.457214,87.385086 359.436554,91.958931 
	C359.269287,128.957199 360.426392,165.997238 359.053711,202.945541 
	C357.196594,252.933121 335.395966,291.674255 289.651215,314.919861 
	C282.399384,318.604950 274.773376,321.659698 266.727722,323.311951 
	C262.438660,324.192719 260.769867,326.418488 260.806122,330.940887 
	C261.007904,356.105255 260.953064,381.271790 260.957886,406.437561 
	C260.959412,414.275024 260.919281,414.279083 253.296997,414.278290 
	C231.464249,414.275970 209.630310,414.147461 187.799698,414.360962 
	C182.975754,414.408142 181.527451,412.876160 181.566010,408.090790 
	C181.767441,383.093079 181.663315,358.092896 181.660721,333.093567 
	C181.659882,325.039429 181.698181,324.881561 173.777878,322.629883 
	C154.362259,317.110229 137.078384,307.825012 122.456993,293.836945 
	C106.071251,278.160919 95.008202,259.256836 88.664276,237.097015 
z"/>
<path fill="#000000" opacity="1.000000" stroke="none" 
	d="
M425.914734,389.604980 
	C419.337799,406.395325 407.416412,416.644775 390.053101,419.061615 
	C372.266754,421.537354 356.978790,415.705994 346.336212,400.758087 
	C336.071808,386.341309 334.271698,370.433411 342.144592,354.485504 
	C350.091248,338.388184 363.239594,329.662964 381.724976,328.521210 
	C404.470551,327.116241 424.860382,346.070190 427.867096,366.096283 
	C429.034271,373.870483 428.855774,381.693909 425.914734,389.604980 
z"/>
</svg>